<?xml version="1.0" standalone="no"?>
<!DOCTYPE svg PUBLIC "-//W3C//DTD SVG 20010904//EN"
 "http://www.w3.org/TR/2001/REC-SVG-20010904/DTD/svg10.dtd">
<svg version="1.0" xmlns="http://www.w3.org/2000/svg"
 width="236.000000pt" height="236.000000pt" viewBox="0 0 236.000000 236.000000"
 preserveAspectRatio="xMidYMid meet">
<metadata>
Created by potrace 1.14, written by Peter Selinger 2001-2017
</metadata>
<g transform="translate(0.000000,236.000000) scale(0.100000,-0.100000)"
fill="#000000" stroke="none">
<path d="M908 2284 c-2 -2 -49 -5 -103 -7 -222 -10 -395 -86 -551 -241 -76
-76 -129 -150 -139 -193 -2 -10 -9 -36 -15 -58 -6 -22 -13 -51 -16 -65 -3 -14
-9 -42 -15 -62 -5 -20 -9 -40 -8 -45 1 -4 0 -10 -1 -13 -6 -13 -23 -199 -23
-260 0 -57 13 -231 18 -240 2 -3 6 -26 10 -50 17 -124 96 -240 214 -314 24
-15 39 -31 35 -35 -5 -4 -31 -16 -58 -26 -65 -24 -106 -62 -144 -134 -40 -76
-45 -99 -46 -186 -1 -95 25 -146 101 -202 85 -63 161 -85 291 -85 59 -1 132 4
163 10 64 12 152 61 183 100 11 15 33 40 49 56 l29 29 16 -32 c22 -46 89 -109
142 -134 64 -31 215 -31 280 -1 55 26 126 87 146 126 l15 29 28 -38 c32 -45
145 -116 210 -133 72 -19 236 -19 327 0 140 28 174 51 228 151 40 72 54 130
54 221 0 87 -5 106 -47 152 -28 30 -138 86 -171 86 -11 0 -20 3 -20 8 0 4 27
34 60 66 32 33 57 63 54 68 -3 4 -1 8 4 8 11 0 72 123 72 145 0 9 4 24 9 33 5
10 12 40 15 67 3 28 8 68 12 90 15 81 10 285 -10 425 -6 41 -45 223 -56 260
-10 37 -70 143 -96 170 -126 133 -156 156 -261 196 -137 52 -233 62 -625 62
-196 0 -358 -2 -360 -4z"/>
</g>
</svg>
